<mxfile host="app.diagrams.net" modified="2022-06-27T08:02:00.059Z" agent="5.0 (Windows NT 10.0; Win64; x64) AppleWebKit/537.36 (KHTML, like Gecko) Chrome/103.0.5060.53 Safari/537.36 Edg/103.0.1264.37" etag="-GZfWuODAItwJ6kZ9Bgi" version="20.0.3" type="github">
  <diagram id="GzrUA6mrX1XvFO8yrAFA" name="Page-1">
    <mxGraphModel dx="1180" dy="753" grid="1" gridSize="10" guides="1" tooltips="1" connect="1" arrows="1" fold="1" page="1" pageScale="1" pageWidth="827" pageHeight="1169" math="0" shadow="0">
      <root>
        <mxCell id="0" />
        <mxCell id="1" parent="0" />
        <mxCell id="eBIgCEritfoh53Qw2P8X-1" value="" style="strokeWidth=2;html=1;shape=mxgraph.flowchart.annotation_1;align=left;pointerEvents=1;rotation=-90;" vertex="1" parent="1">
          <mxGeometry x="86.82" y="172.82" width="289.37" height="225" as="geometry" />
        </mxCell>
        <mxCell id="eBIgCEritfoh53Qw2P8X-2" value="路由堆栈" style="rounded=0;fillColor=#dae8fc;strokeColor=#6c8ebf;fontColor=#FF6666;fontFamily=Helvetica;whiteSpace=wrap;html=1;fontSize=20;fontStyle=1" vertex="1" parent="1">
          <mxGeometry x="120" y="470" width="120" height="50" as="geometry" />
        </mxCell>
        <mxCell id="eBIgCEritfoh53Qw2P8X-3" value="Home" style="rounded=0;fillColor=#f8cecc;strokeColor=#b85450;fontFamily=Helvetica;whiteSpace=wrap;html=1;fontSize=19;fontStyle=0" vertex="1" parent="1">
          <mxGeometry x="166.25" y="350" width="132.5" height="60" as="geometry" />
        </mxCell>
        <mxCell id="eBIgCEritfoh53Qw2P8X-4" value="Get.to / Get.toNamed" style="rounded=0;fillColor=#ffe6cc;strokeColor=#d79b00;fontFamily=Helvetica;whiteSpace=wrap;html=1;fontSize=18;fontStyle=0" vertex="1" parent="1">
          <mxGeometry x="138.75" y="240" width="187.5" height="70" as="geometry" />
        </mxCell>
        <mxCell id="eBIgCEritfoh53Qw2P8X-7" value="" style="endArrow=classic;html=1;rounded=0;fontFamily=Helvetica;fontSize=19;fontColor=#FF6666;spacing=5;startArrow=none;strokeWidth=2;" edge="1" parent="1" source="eBIgCEritfoh53Qw2P8X-8">
          <mxGeometry width="50" height="50" relative="1" as="geometry">
            <mxPoint x="232" y="190" as="sourcePoint" />
            <mxPoint x="232" y="250" as="targetPoint" />
          </mxGeometry>
        </mxCell>
        <mxCell id="eBIgCEritfoh53Qw2P8X-8" value="Current" style="text;html=1;strokeColor=none;fillColor=none;align=center;verticalAlign=middle;whiteSpace=wrap;rounded=0;fontFamily=Helvetica;fontSize=19;fontColor=#000000;" vertex="1" parent="1">
          <mxGeometry x="202.5" y="161.25" width="60" height="30" as="geometry" />
        </mxCell>
        <mxCell id="eBIgCEritfoh53Qw2P8X-9" value="" style="endArrow=none;html=1;rounded=0;fontFamily=Helvetica;fontSize=19;fontColor=#FF6666;spacing=5;" edge="1" parent="1" target="eBIgCEritfoh53Qw2P8X-8">
          <mxGeometry width="50" height="50" relative="1" as="geometry">
            <mxPoint x="232" y="190" as="sourcePoint" />
            <mxPoint x="232" y="250" as="targetPoint" />
          </mxGeometry>
        </mxCell>
        <mxCell id="eBIgCEritfoh53Qw2P8X-10" value="" style="strokeWidth=2;html=1;shape=mxgraph.flowchart.annotation_1;align=left;pointerEvents=1;rotation=-90;" vertex="1" parent="1">
          <mxGeometry x="342.36" y="173.61" width="287.8" height="225" as="geometry" />
        </mxCell>
        <mxCell id="eBIgCEritfoh53Qw2P8X-11" value="Home" style="rounded=0;fillColor=#f8cecc;strokeColor=#b85450;fontFamily=Helvetica;whiteSpace=wrap;html=1;fontSize=19;fontStyle=0" vertex="1" parent="1">
          <mxGeometry x="420" y="350" width="132.5" height="60" as="geometry" />
        </mxCell>
        <mxCell id="eBIgCEritfoh53Qw2P8X-12" value="Get.off / Get.offNamed" style="rounded=0;fillColor=#ffe6cc;strokeColor=#d79b00;fontFamily=Helvetica;whiteSpace=wrap;html=1;fontSize=18;fontStyle=0" vertex="1" parent="1">
          <mxGeometry x="392.5" y="330" width="187.5" height="70" as="geometry" />
        </mxCell>
        <mxCell id="eBIgCEritfoh53Qw2P8X-13" value="" style="endArrow=classic;html=1;rounded=0;fontFamily=Helvetica;fontSize=19;fontColor=#FF6666;spacing=5;startArrow=none;strokeWidth=2;" edge="1" parent="1" source="eBIgCEritfoh53Qw2P8X-14">
          <mxGeometry width="50" height="50" relative="1" as="geometry">
            <mxPoint x="485.75" y="291" as="sourcePoint" />
            <mxPoint x="485.75" y="351" as="targetPoint" />
          </mxGeometry>
        </mxCell>
        <mxCell id="eBIgCEritfoh53Qw2P8X-14" value="Current" style="text;html=1;strokeColor=none;fillColor=none;align=center;verticalAlign=middle;whiteSpace=wrap;rounded=0;fontFamily=Helvetica;fontSize=19;fontColor=#000000;" vertex="1" parent="1">
          <mxGeometry x="456.25" y="262.25" width="60" height="30" as="geometry" />
        </mxCell>
        <mxCell id="eBIgCEritfoh53Qw2P8X-15" value="" style="endArrow=none;html=1;rounded=0;fontFamily=Helvetica;fontSize=19;fontColor=#FF6666;spacing=5;" edge="1" parent="1" target="eBIgCEritfoh53Qw2P8X-14">
          <mxGeometry width="50" height="50" relative="1" as="geometry">
            <mxPoint x="485.75" y="291" as="sourcePoint" />
            <mxPoint x="485.75" y="351" as="targetPoint" />
          </mxGeometry>
        </mxCell>
        <mxCell id="eBIgCEritfoh53Qw2P8X-16" value="" style="endArrow=classic;html=1;rounded=0;fontFamily=Helvetica;fontSize=19;fontColor=#FF6666;spacing=5;startArrow=none;strokeWidth=2;" edge="1" parent="1">
          <mxGeometry width="50" height="50" relative="1" as="geometry">
            <mxPoint x="606.6483050847457" y="450" as="sourcePoint" />
            <mxPoint x="516.25" y="390" as="targetPoint" />
          </mxGeometry>
        </mxCell>
        <mxCell id="eBIgCEritfoh53Qw2P8X-17" value="Replace" style="text;html=1;strokeColor=none;fillColor=none;align=center;verticalAlign=middle;whiteSpace=wrap;rounded=0;fontFamily=Helvetica;fontSize=19;fontColor=#000000;" vertex="1" parent="1">
          <mxGeometry x="560" y="450" width="60" height="30" as="geometry" />
        </mxCell>
        <mxCell id="eBIgCEritfoh53Qw2P8X-18" value="" style="strokeWidth=2;html=1;shape=mxgraph.flowchart.annotation_1;align=left;pointerEvents=1;rotation=-90;" vertex="1" parent="1">
          <mxGeometry x="605.44" y="163.58" width="287.22" height="245.62" as="geometry" />
        </mxCell>
        <mxCell id="eBIgCEritfoh53Qw2P8X-19" value="Home" style="rounded=0;fillColor=#f8cecc;strokeColor=#b85450;fontFamily=Helvetica;whiteSpace=wrap;html=1;fontSize=19;fontStyle=0" vertex="1" parent="1">
          <mxGeometry x="682.81" y="350" width="132.5" height="60" as="geometry" />
        </mxCell>
        <mxCell id="eBIgCEritfoh53Qw2P8X-20" value="Get.offAll / Get.offAllNamed" style="rounded=0;fillColor=#fff2cc;strokeColor=#d6b656;fontFamily=Helvetica;whiteSpace=wrap;html=1;fontSize=18;fontStyle=0" vertex="1" parent="1">
          <mxGeometry x="634.06" y="330" width="230" height="70" as="geometry" />
        </mxCell>
        <mxCell id="eBIgCEritfoh53Qw2P8X-21" value="" style="endArrow=classic;html=1;rounded=0;fontFamily=Helvetica;fontSize=19;fontColor=#FF6666;spacing=5;startArrow=none;strokeWidth=2;" edge="1" parent="1" source="eBIgCEritfoh53Qw2P8X-22">
          <mxGeometry width="50" height="50" relative="1" as="geometry">
            <mxPoint x="738.25" y="291" as="sourcePoint" />
            <mxPoint x="750" y="390" as="targetPoint" />
          </mxGeometry>
        </mxCell>
        <mxCell id="eBIgCEritfoh53Qw2P8X-22" value="Current" style="text;html=1;strokeColor=none;fillColor=none;align=center;verticalAlign=middle;whiteSpace=wrap;rounded=0;fontFamily=Helvetica;fontSize=19;fontColor=#000000;" vertex="1" parent="1">
          <mxGeometry x="740" y="450" width="60" height="30" as="geometry" />
        </mxCell>
        <mxCell id="eBIgCEritfoh53Qw2P8X-24" value="" style="endArrow=classic;html=1;rounded=0;fontFamily=Helvetica;fontSize=19;fontColor=#FF6666;spacing=5;startArrow=none;strokeWidth=2;" edge="1" parent="1">
          <mxGeometry width="50" height="50" relative="1" as="geometry">
            <mxPoint x="917.3983050847457" y="450" as="sourcePoint" />
            <mxPoint x="827" y="390" as="targetPoint" />
          </mxGeometry>
        </mxCell>
        <mxCell id="eBIgCEritfoh53Qw2P8X-25" value="Replace" style="text;html=1;strokeColor=none;fillColor=none;align=center;verticalAlign=middle;whiteSpace=wrap;rounded=0;fontFamily=Helvetica;fontSize=19;fontColor=#000000;" vertex="1" parent="1">
          <mxGeometry x="900" y="450" width="60" height="30" as="geometry" />
        </mxCell>
        <mxCell id="eBIgCEritfoh53Qw2P8X-33" value="Get.to / Get.toNamed" style="rounded=0;fillColor=#ffe6cc;strokeColor=#d79b00;fontFamily=Helvetica;whiteSpace=wrap;html=1;fontSize=18;fontStyle=0" vertex="1" parent="1">
          <mxGeometry x="655.31" y="240" width="187.5" height="70" as="geometry" />
        </mxCell>
        <mxCell id="eBIgCEritfoh53Qw2P8X-34" value="Get.to / Get.toNamed" style="rounded=0;fillColor=#ffe6cc;strokeColor=#d79b00;fontFamily=Helvetica;whiteSpace=wrap;html=1;fontSize=18;fontStyle=0" vertex="1" parent="1">
          <mxGeometry x="655.31" y="161.25" width="187.5" height="70" as="geometry" />
        </mxCell>
        <mxCell id="eBIgCEritfoh53Qw2P8X-37" value="" style="endArrow=classic;html=1;rounded=0;fontFamily=Helvetica;fontSize=19;fontColor=#FF6666;spacing=5;startArrow=none;strokeWidth=2;" edge="1" parent="1" target="eBIgCEritfoh53Qw2P8X-33">
          <mxGeometry width="50" height="50" relative="1" as="geometry">
            <mxPoint x="920" y="270" as="sourcePoint" />
            <mxPoint x="837" y="250" as="targetPoint" />
          </mxGeometry>
        </mxCell>
        <mxCell id="eBIgCEritfoh53Qw2P8X-38" value="Remove" style="text;html=1;strokeColor=none;fillColor=none;align=center;verticalAlign=middle;whiteSpace=wrap;rounded=0;fontFamily=Helvetica;fontSize=19;fontColor=#000000;" vertex="1" parent="1">
          <mxGeometry x="930" y="250" width="60" height="30" as="geometry" />
        </mxCell>
        <mxCell id="eBIgCEritfoh53Qw2P8X-39" value="" style="endArrow=classic;html=1;rounded=0;fontFamily=Helvetica;fontSize=19;fontColor=#FF6666;spacing=5;startArrow=none;strokeWidth=2;" edge="1" parent="1">
          <mxGeometry width="50" height="50" relative="1" as="geometry">
            <mxPoint x="920" y="201.25" as="sourcePoint" />
            <mxPoint x="842.81" y="203.5078097578098" as="targetPoint" />
          </mxGeometry>
        </mxCell>
        <mxCell id="eBIgCEritfoh53Qw2P8X-40" value="Remove" style="text;html=1;strokeColor=none;fillColor=none;align=center;verticalAlign=middle;whiteSpace=wrap;rounded=0;fontFamily=Helvetica;fontSize=19;fontColor=#000000;" vertex="1" parent="1">
          <mxGeometry x="930" y="181.25" width="60" height="30" as="geometry" />
        </mxCell>
      </root>
    </mxGraphModel>
  </diagram>
</mxfile>
